<svg xmlns="http://www.w3.org/2000/svg" xmlns:xlink="http://www.w3.org/1999/xlink" width="500" zoomAndPan="magnify" viewBox="0 0 375 374.999991" height="500" preserveAspectRatio="xMidYMid meet" version="1.0"><rect x="-37.5" width="450" fill="#ffffff" y="-37.499999" height="449.999989" fill-opacity="1"/><rect x="-37.5" width="450" fill="#060537" y="-37.499999" height="449.999989" fill-opacity="1"/><path fill="#0303f7" d="M 230.140625 152.089844 L 185.144531 217.441406 C 165 246.699219 132.988281 257.230469 104.054688 250.539062 L 52.417969 325.917969 L 213.226562 325.683594 C 272.992188 325.597656 311.785156 256.867188 284.984375 198.535156 C 273.285156 173.066406 252.652344 157.363281 230.140625 152.089844 Z M 230.140625 152.089844 " fill-opacity="1" fill-rule="nonzero"/><path fill="#fa5b07" d="M 161.011719 49.664062 C 101.242188 49.589844 62.296875 118.226562 88.964844 176.632812 C 100.675781 202.28125 121.449219 218.070312 144.105469 223.308594 L 188.78125 158.085938 C 208.949219 128.640625 241.136719 118.054688 270.191406 124.859375 L 321.820312 49.867188 Z M 161.011719 49.664062 " fill-opacity="1" fill-rule="nonzero"/></svg>